:FULLY-SPECIFIED
:FORCE-ALL-JOINTS-BE-3DOF
:DEGREES
136
root 7.62721 16.7387 -26.2935 -5.79392 17.3978 -0.0319052
lfemur -11.0559 14.8504 -17.8598
ltibia 31.0125 0 0
lfoot -10.76 -4.96851 0
ltoes 33.3359 0 0
rfemur -53.6168 -11.559 4.64126
rtibia 56.5345 0 0
rfoot 8.83806 -0.341868 0
rtoes 4.74252 0 0
lowerback 11.1655 -3.36062 -2.33809
upperback 3.42039 -4.66362 0.724542
thorax -2.45289 -2.32599 2.51332
lowerneck -11.3747 -3.60341 0.107483
upperneck 1.1492 -4.93547 2.29454
head 2.45251 -2.37842 0.445728
lclavicle -3.77994e-14 4.32478e-15 0
lhumerus -42.1353 -22.3095 98.6569
lradius 49.4085 0 0
lwrist 11.951 0 0
lhand 16.0273 11.912 0
lfingers 7.12502 0 0
lthumb 40.5733 35.0525 0
rclavicle -3.77994e-14 4.32478e-15 0
rhumerus -44.3485 -8.41335 -61.4796
rradius 72.204 0 0
rwrist -4.05014 0 0
rhand -4.12212 -17.2875 0
rfingers 7.12502 0 0
rthumb 21.6031 -151.027 0
137
root 7.59652 16.7185 -26.2746 -5.47684 17.9354 -0.0030611
lfemur -11.5631 15.4305 -17.9007
ltibia 31.2823 0 0
lfoot -10.6045 -4.37984 0
ltoes 33.2762 0 0
rfemur -52.7191 -11.4337 4.37308
rtibia 57.1812 0 0
rfoot 8.88174 -1.22601 0
rtoes 6.12001 0 0
lowerback 10.8698 -3.47646 -2.33262
upperback 3.30439 -4.81439 0.653449
thorax -2.41183 -2.401 2.43182
lowerneck -11.3235 -3.7164 0.0236054
upperneck 1.17292 -5.08117 2.40475
head 2.46165 -2.44793 0.487954
lclavicle -3.52467e-14 3.9563e-15 0
lhumerus -42.3187 -22.9504 99.1734
lradius 49.4842 0 0
lwrist 11.9773 0 0
lhand 16.7655 12.3128 0
lfingers 7.12502 0 0
lthumb 41.2513 35.1219 0
rclavicle -3.52467e-14 3.9563e-15 0
rhumerus -44.5821 -8.83816 -61.9545
rradius 72.9283 0 0
rwrist -4.52187 0 0
rhand -4.78542 -17.3977 0
rfingers 7.12502 0 0
rthumb 20.965 -159.973 0
138
root 7.56583 16.6982 -26.2556 -5.15976 18.473 0.025783
lfemur -12.0703 16.0106 -17.9416
ltibia 31.5521 0 0
lfoot -10.449 -3.79118 0
ltoes 33.2165 0 0
rfemur -51.8214 -11.3084 4.10489
rtibia 57.8279 0 0
rfoot 8.92541 -2.11015 0
rtoes 7.4975 0 0
lowerback 10.5741 -3.5923 -2.32715
upperback 3.18839 -4.96516 0.582356
thorax -2.37077 -2.47601 2.35032
lowerneck -11.2724 -3.8294 -0.0602727
upperneck 1.19664 -5.22687 2.51496
head 2.47078 -2.51744 0.53018
lclavicle -3.2694e-14 3.58782e-15 0
lhumerus -42.5022 -23.5913 99.69
lradius 49.5599 0 0
lwrist 12.0037 0 0
lhand 17.5036 12.7135 0
lfingers 7.12502 0 0
lthumb 41.9293 35.1912 0
rclavicle -3.2694e-14 3.58782e-15 0
rhumerus -44.8157 -9.26297 -62.4294
rradius 73.6526 0 0
rwrist -4.9936 0 0
rhand -5.44873 -17.508 0
rfingers 7.12502 0 0
rthumb 20.3268 -168.918 0
139
root 7.53514 16.6779 -26.2366 -4.84268 19.0107 0.0546272
lfemur -12.5775 16.5907 -17.9825
ltibia 31.8218 0 0
lfoot -10.2935 -3.20251 0
ltoes 33.1569 0 0
rfemur -50.9236 -11.1831 3.83671
rtibia 58.4746 0 0
rfoot 8.96909 -2.99429 0
rtoes 8.87498 0 0
lowerback 10.2784 -3.70815 -2.32168
upperback 3.07239 -5.11593 0.511262
thorax -2.32971 -2.55102 2.26882
lowerneck -11.2213 -3.9424 -0.144151
upperneck 1.22036 -5.37257 2.62518
head 2.47992 -2.58695 0.572406
lclavicle -3.01413e-14 3.21934e-15 0
lhumerus -42.6856 -24.2322 100.207
lradius 49.6356 0 0
lwrist 12.0301 0 0
lhand 18.2418 13.1143 0
lfingers 7.12502 0 0
lthumb 42.6074 35.2606 0
rclavicle -3.01413e-14 3.21934e-15 0
rhumerus -45.0493 -9.68778 -62.9042
rradius 74.3769 0 0
rwrist -5.46534 0 0
rhand -6.11204 -17.6182 0
rfingers 7.12502 0 0
rthumb 19.6887 -177.863 0
140
root 7.50446 16.6576 -26.2177 -4.5256 19.5483 0.0834713
lfemur -13.0847 17.1708 -18.0234
ltibia 32.0916 0 0
lfoot -10.138 -2.61385 0
ltoes 33.0972 0 0
rfemur -50.0259 -11.0578 3.56853
rtibia 59.1213 0 0
rfoot 9.01277 -3.87842 0
rtoes 10.2525 0 0
lowerback 9.9827 -3.82399 -2.3162
upperback 2.95639 -5.2667 0.440169
thorax -2.28865 -2.62603 2.18731
lowerneck -11.1702 -4.05539 -0.228029
upperneck 1.24409 -5.51827 2.73539
head 2.48906 -2.65646 0.614631
lclavicle -2.75886e-14 2.85087e-15 0
lhumerus -42.869 -24.873 100.723
lradius 49.7113 0 0
lwrist 12.0565 0 0
lhand 18.98 13.515 0
lfingers 7.12502 0 0
lthumb 43.2854 35.3299 0
rclavicle -2.75886e-14 2.85087e-15 0
rhumerus -45.2829 -10.1126 -63.3791
rradius 75.1011 0 0
rwrist -5.93707 0 0
rhand -6.77534 -17.7285 0
rfingers 7.12502 0 0
rthumb 19.0506 -186.809 0
141
root 7.47377 16.6373 -26.1987 -4.20852 20.086 0.112315
lfemur -13.5919 17.7509 -18.0643
ltibia 32.3613 0 0
lfoot -9.9825 -2.02518 0
ltoes 33.0376 0 0
rfemur -49.1282 -10.9325 3.30034
rtibia 59.768 0 0
rfoot 9.05644 -4.76256 0
rtoes 11.63 0 0
lowerback 9.68699 -3.93984 -2.31073
upperback 2.84039 -5.41747 0.369076
thorax -2.24759 -2.70104 2.10581
lowerneck -11.119 -4.16839 -0.311907
upperneck 1.26781 -5.66397 2.8456
head 2.49819 -2.72597 0.656857
lclavicle -2.50359e-14 2.48239e-15 0
lhumerus -43.0525 -25.5139 101.24
lradius 49.787 0 0
lwrist 12.0829 0 0
lhand 19.7181 13.9158 0
lfingers 7.12502 0 0
lthumb 43.9634 35.3993 0
rclavicle -2.50359e-14 2.48239e-15 0
rhumerus -45.5165 -10.5374 -63.854
rradius 75.8254 0 0
rwrist -6.4088 0 0
rhand -7.43865 -17.8388 0
rfingers 7.12502 0 0
rthumb 18.4124 -195.754 0
142
root 7.44308 16.6171 -26.1798 -3.89144 20.6236 0.14116
lfemur -14.0991 18.3311 -18.1052
ltibia 32.6311 0 0
lfoot -9.82699 -1.43651 0
ltoes 32.9779 0 0
rfemur -48.2305 -10.8072 3.03216
rtibia 60.4146 0 0
rfoot 9.10012 -5.6467 0
rtoes 13.0074 0 0
lowerback 9.39129 -4.05568 -2.30526
upperback 2.7244 -5.56824 0.297983
thorax -2.20653 -2.77604 2.02431
lowerneck -11.0679 -4.28138 -0.395785
upperneck 1.29153 -5.80967 2.95581
head 2.50733 -2.79547 0.699083
lclavicle -2.24833e-14 2.11391e-15 0
lhumerus -43.2359 -26.1548 101.756
lradius 49.8627 0 0
lwrist 12.1093 0 0
lhand 20.4563 14.3165 0
lfingers 7.12502 0 0
lthumb 44.6415 35.4686 0
rclavicle -2.24833e-14 2.11391e-15 0
rhumerus -45.7501 -10.9622 -64.3289
rradius 76.5497 0 0
rwrist -6.88054 0 0
rhand -8.10195 -17.949 0
rfingers 7.12502 0 0
rthumb 17.7743 -204.699 0
143
root 7.4124 16.5968 -26.1608 -3.57436 21.1612 0.170004
lfemur -14.6063 18.9112 -18.1461
ltibia 32.9008 0 0
lfoot -9.67148 -0.847849 0
ltoes 32.9183 0 0
rfemur -47.3327 -10.6819 2.76398
rtibia 61.0613 0 0
rfoot 9.1438 -6.53084 0
rtoes 14.3849 0 0
lowerback 9.09558 -4.17152 -2.29979
upperback 2.6084 -5.71901 0.22689
thorax -2.16547 -2.85105 1.94281
lowerneck -11.0168 -4.39438 -0.479663
upperneck 1.31526 -5.95537 3.06603
head 2.51647 -2.86498 0.741309
lclavicle -1.99306e-14 1.74543e-15 0
lhumerus -43.4193 -26.7957 102.273
lradius 49.9384 0 0
lwrist 12.1357 0 0
lhand 21.1945 14.7173 0
lfingers 7.12502 0 0
lthumb 45.3195 35.538 0
rclavicle -1.99306e-14 1.74543e-15 0
rhumerus -45.9837 -11.387 -64.8037
rradius 77.2739 0 0
rwrist -7.35227 0 0
rhand -8.76526 -18.0593 0
rfingers 7.12502 0 0
rthumb 17.1362 -213.645 0
144
root 7.38171 16.5765 -26.1418 -3.25728 21.6989 0.198848
lfemur -15.1135 19.4913 -18.187
ltibia 33.1706 0 0
lfoot -9.51598 -0.259183 0
ltoes 32.8586 0 0
rfemur -46.435 -10.5566 2.4958
rtibia 61.708 0 0
rfoot 9.18748 -7.41498 0
rtoes 15.7624 0 0
lowerback 8.79987 -4.28737 -2.29432
upperback 2.4924 -5.86978 0.155797
thorax -2.12441 -2.92606 1.86131
lowerneck -10.9656 -4.50738 -0.563541
upperneck 1.33898 -6.10107 3.17624
head 2.52561 -2.93449 0.783535
lclavicle -1.73779e-14 1.37695e-15 0
lhumerus -43.6028 -27.4366 102.789
lradius 50.0141 0 0
lwrist 12.1621 0 0
lhand 21.9326 15.118 0
lfingers 7.12502 0 0
lthumb 45.9975 35.6073 0
rclavicle -1.73779e-14 1.37695e-15 0
rhumerus -46.2173 -11.8118 -65.2786
rradius 77.9982 0 0
rwrist -7.824 0 0
rhand -9.42857 -18.1695 0
rfingers 7.12502 0 0
rthumb 16.4981 -222.59 0
